<?xml version="1.0" encoding="utf-8"?>
<!-- Generator: Adobe Illustrator 25.2.1, SVG Export Plug-In . SVG Version: 6.00 Build 0)  -->
<svg version="1.1" id="Camada_1" xmlns="http://www.w3.org/2000/svg" xmlns:xlink="http://www.w3.org/1999/xlink" x="0px" y="0px"
	 viewBox="0 0 263.2 57.8" style="enable-background:new 0 0 263.2 57.8;" xml:space="preserve">
<style type="text/css">
	.st0{fill-rule:evenodd;clip-rule:evenodd;fill:#FFFF00;}
	.st1{fill:#000001;}
</style>
<path class="st0" d="M17.4,38.7c0,0.4,0.1,0.8,0.4,1.1l0,0l5.7,7.6c0.3,0.3,0.6,0.6,0.9,0.8c0.2,0.1,0.5,0.2,1,0.2h36.3
	c0.4,0,0.7-0.1,1-0.2c0.3-0.2,0.5-0.4,0.9-0.8l5.7-7.6l0,0c0.2-0.3,0.3-0.7,0.4-1.1c0-0.4-0.1-0.8-0.4-1.1l0,0L63.5,30
	c-0.3-0.3-0.6-0.6-0.9-0.8c-0.2-0.1-0.5-0.2-1-0.2H25.3c-0.4,0-0.7,0.1-1,0.2c-0.3,0.2-0.5,0.4-0.9,0.8l-5.7,7.6l0,0
	C17.5,37.9,17.4,38.3,17.4,38.7 M38.7,17H27.9c-0.5,0-0.9,0.2-1.2,0.5c-0.3,0.3-0.5,0.7-0.5,1.2v5.5c0,0.5,0.2,0.9,0.5,1.2
	c0.3,0.3,0.7,0.5,1.2,0.5h10.8c0.5,0,0.9-0.2,1.2-0.5c0.3-0.3,0.4-0.6,0.5-1v-5.8c0-0.4-0.2-0.8-0.5-1C39.5,17.2,39.1,17,38.7,17z
	 M59.3,17H48.5c-0.5,0-0.9,0.2-1.2,0.5c-0.3,0.3-0.5,0.7-0.5,1.2v5.5c0,0.5,0.2,0.9,0.5,1.2c0.3,0.3,0.7,0.5,1.2,0.5h10.8
	c0.5,0,0.9-0.2,1.2-0.5c0.3-0.3,0.5-0.7,0.5-1.2v-5.5c0-0.5-0.2-0.9-0.5-1.2C60.2,17.2,59.8,17,59.3,17z M57.4,34.9
	c2.1,0,3.7,1.7,3.7,3.7c0,2.1-1.7,3.7-3.7,3.7c-2.1,0-3.7-1.7-3.7-3.7C53.6,36.6,55.3,34.9,57.4,34.9z M29.7,34.9
	c2.1,0,3.7,1.7,3.7,3.7c0,2.1-1.7,3.7-3.7,3.7c-2.1,0-3.7-1.7-3.7-3.7C25.9,36.6,27.6,34.9,29.7,34.9z M49.3,21.5
	c0.8,0,1.5,0.6,1.5,1.5c0,0.8-0.6,1.5-1.5,1.5c-0.8,0-1.5-0.6-1.5-1.5C47.8,22.2,48.5,21.5,49.3,21.5z M37.8,21.5
	c0.8,0,1.5,0.6,1.5,1.5c0,0.8-0.6,1.5-1.5,1.5c-0.8,0-1.5-0.6-1.5-1.5C36.3,22.2,37,21.5,37.8,21.5z M69.9,33.9l1.5,2
	c0.6,0.8,0.9,1.8,0.9,2.8c0,0,0,0.1,0,0.1c0,0,0,0.1,0,0.1c0,1-0.3,2-0.9,2.8l-1.5,2h0l-4.2,5.6l0,0l0,0l-0.1,0.1
	c-0.9,0.9-1.8,1.8-3.8,1.8H49.3c-1.5,1.5-3.5,2.4-5.8,2.4c-2.3,0-4.3-0.9-5.8-2.4H25.3c-2,0-2.9-0.9-3.8-1.8l-0.1-0.1l0,0l0,0
	l-4.2-5.6h0l-1.5-2c-0.6-0.8-0.9-1.8-0.9-2.8c0,0,0-0.1,0-0.1c0,0,0-0.1,0-0.1c0-1,0.3-2,0.9-2.8c2-2.5,3.9-5,5.8-7.6l0,0l0,0
	l0.1-0.1c0.5-0.5,1-1,1.7-1.4l0-0.8l0-1.6C19,24.3,10,21.6,10,15.7v-0.2c0-1.1,0.9-1.9,2-1.9l11.3,0.2v-0.3v-0.8V5.5
	c0,0,0,0.2,0-0.1c0-0.3,0.5-1.1,1.1-1.1c0.3,0,0.6,0.1,0.8,0.4l0.4,0.4l7.1,8.7c2.1,0,4.6,0,7.5,0c1.1,0,2.9,0.2,3.5,2
	c0.6-1.8,2.2-2,3.3-2c2.8,0,5.5,0,7.5,0l7.1-8.7l0.4-0.5c0.2-0.2,0.5-0.3,0.8-0.3c0.5,0,1,0.4,1.1,0.9c0,0,0,0.1,0,0.1
	c0,0,0,0.1,0,0.1c0,0,0,0,0,0.1v7.3v0.8v0.3l11.4-0.2c1.1,0,2,0.8,2,1.9v0.2c0,5.9-9,8.6-13.2,8.6l0,2.5c0.7,0.4,1.2,0.9,1.7,1.3
	l0.1,0.1l0,0l0,0L69.9,33.9L69.9,33.9z M75,38.7C75,38.7,75,38.8,75,38.7c0,1.7-0.5,3.2-1.5,4.5l-2.3,3h0l-3.6,4.7l-0.2,0.2
	c-1.7,1.7-3.2,2.6-5.7,2.6H50.3c-1.9,1.6-4.3,2.4-6.8,2.4c-2.5,0-4.9-0.9-6.8-2.4H25.3c-2.5,0-4-0.9-5.7-2.6l-0.2-0.2l-0.1-0.2
	l-3.4-4.6h0l-2.3-3c-1-1.3-1.5-2.8-1.5-4.4c0,0,0-0.1,0-0.1c0,0,0-0.1,0-0.1c0-1.6,0.5-3.2,1.5-4.4c2-2.5,3.9-5,5.8-7.5l0.1-0.2
	c-1.5-0.3-3-0.8-4.3-1.3c-4-1.7-7.7-4.8-7.7-9.4v-0.2c0-2.6,2.1-4.6,4.7-4.6l8.6,0.1V5.6c0-0.1,0-0.1,0-0.2c0-1.9,1.8-3.7,3.7-3.7
	c1.1,0,2.1,0.5,2.8,1.3l0.4,0.4l6.3,7.7c2.1,0,4.2,0,6.2,0c1.3,0,2.5,0.2,3.5,0.8c1-0.5,2.1-0.8,3.3-0.8c2.1,0,4.2,0,6.2,0l6.3-7.7
	l0.4-0.5c0.7-0.8,1.7-1.2,2.8-1.2c1.8,0,3.4,1.3,3.7,3.1c0,0.1,0,0.3,0,0.4c0,0.1,0,0.1,0,0.2c0,0,0,0.1,0,0.1v5.6l8.6-0.1
	c2.6,0,4.7,2,4.7,4.6v0.2c0,1.1-0.2,2.2-0.7,3.3c-1.7,4-6.8,6.6-11.4,7.6l3.5,4.7h0l2.3,3C74.5,35.5,75,37,75,38.7
	C75,38.6,75,38.7,75,38.7z"/>
<path class="st1" d="M17.4,38.7c0,0.4,0.1,0.8,0.4,1.1l0,0l5.7,7.6c0.3,0.3,0.6,0.6,0.9,0.8c0.2,0.1,0.5,0.2,1,0.2h36.3
	c0.4,0,0.7-0.1,1-0.2c0.3-0.2,0.5-0.4,0.9-0.8l5.7-7.6l0,0c0.2-0.3,0.3-0.7,0.4-1.1c0-0.4-0.1-0.8-0.4-1.1l0,0L63.5,30
	c-0.3-0.3-0.6-0.6-0.9-0.8c-0.2-0.1-0.5-0.2-1-0.2H25.3c-0.4,0-0.7,0.1-1,0.2c-0.3,0.2-0.5,0.4-0.9,0.8l-5.7,7.6l0,0
	C17.5,37.9,17.4,38.3,17.4,38.7 M38.7,17H27.9c-0.5,0-0.9,0.2-1.2,0.5c-0.3,0.3-0.5,0.7-0.5,1.2v5.5c0,0.5,0.2,0.9,0.5,1.2
	c0.3,0.3,0.7,0.5,1.2,0.5h10.8c0.5,0,0.9-0.2,1.2-0.5c0.3-0.3,0.4-0.6,0.5-1v-5.8c0-0.4-0.2-0.8-0.5-1C39.5,17.2,39.1,17,38.7,17z
	 M59.3,17H48.5c-0.5,0-0.9,0.2-1.2,0.5c-0.3,0.3-0.5,0.7-0.5,1.2v5.5c0,0.5,0.2,0.9,0.5,1.2c0.3,0.3,0.7,0.5,1.2,0.5h10.8
	c0.5,0,0.9-0.2,1.2-0.5c0.3-0.3,0.5-0.7,0.5-1.2v-5.5c0-0.5-0.2-0.9-0.5-1.2C60.2,17.2,59.8,17,59.3,17z M57.4,34.9
	c2.1,0,3.7,1.7,3.7,3.7c0,2.1-1.7,3.7-3.7,3.7c-2.1,0-3.7-1.7-3.7-3.7C53.6,36.6,55.3,34.9,57.4,34.9z M29.7,34.9
	c2.1,0,3.7,1.7,3.7,3.7c0,2.1-1.7,3.7-3.7,3.7c-2.1,0-3.7-1.7-3.7-3.7C25.9,36.6,27.6,34.9,29.7,34.9z M49.3,21.5
	c0.8,0,1.5,0.6,1.5,1.5c0,0.8-0.6,1.5-1.5,1.5c-0.8,0-1.5-0.6-1.5-1.5C47.8,22.2,48.5,21.5,49.3,21.5z M37.8,21.5
	c0.8,0,1.5,0.6,1.5,1.5c0,0.8-0.6,1.5-1.5,1.5c-0.8,0-1.5-0.6-1.5-1.5C36.3,22.2,37,21.5,37.8,21.5z M69.9,33.9l1.5,2
	c0.6,0.8,0.9,1.8,0.9,2.8c0,0,0,0.1,0,0.1c0,0,0,0.1,0,0.1c0,1-0.3,2-0.9,2.8l-1.5,2h0l-4.2,5.6l0,0l0,0l-0.1,0.1
	c-0.9,0.9-1.8,1.8-3.8,1.8H49.3c-1.5,1.5-3.5,2.4-5.8,2.4c-2.3,0-4.3-0.9-5.8-2.4H25.3c-2,0-2.9-0.9-3.8-1.8l-0.1-0.1l0,0l0,0
	l-4.2-5.6h0l-1.5-2c-0.6-0.8-0.9-1.8-0.9-2.8c0,0,0-0.1,0-0.1c0,0,0-0.1,0-0.1c0-1,0.3-2,0.9-2.8c2-2.5,3.9-5,5.8-7.6l0,0l0,0
	l0.1-0.1c0.5-0.5,1-1,1.7-1.4l0-0.8l0-1.6C19,24.3,10,21.6,10,15.7v-0.2c0-1.1,0.9-1.9,2-1.9l11.3,0.2v-0.3v-0.8V5.5
	c0,0,0,0.2,0-0.1c0-0.3,0.5-1.1,1.1-1.1c0.3,0,0.6,0.1,0.8,0.4l0.4,0.4l7.1,8.7c2.1,0,4.6,0,7.5,0c1.1,0,2.9,0.2,3.5,2
	c0.6-1.8,2.2-2,3.3-2c2.8,0,5.5,0,7.5,0l7.1-8.7l0.4-0.5c0.2-0.2,0.5-0.3,0.8-0.3c0.5,0,1,0.4,1.1,0.9c0,0,0,0.1,0,0.1
	c0,0,0,0.1,0,0.1c0,0,0,0,0,0.1v7.3v0.8v0.3l11.4-0.2c1.1,0,2,0.8,2,1.9v0.2c0,5.9-9,8.6-13.2,8.6l0,2.5c0.7,0.4,1.2,0.9,1.7,1.3
	l0.1,0.1l0,0l0,0L69.9,33.9L69.9,33.9z"/>
<path class="st1" d="M212.9,21.2c-1.2,0-2.3,0.4-3.3,1.1c-1,0.8-1.7,1.7-2.2,2.9h11.2c-0.4-1.3-1.1-2.3-2.1-3
	C215.3,21.6,214.2,21.2,212.9,21.2 M219.6,34c0.2-0.1,0.4-0.2,0.6-0.2c0.3,0,0.5,0.1,0.6,0.3l3.1,3.9c0.2,0.2,0.3,0.4,0.3,0.6
	c0.1,0.3-0.1,0.6-0.4,0.9c-1.7,1.5-3.4,2.5-5,3.1c-1.6,0.5-3.4,0.8-5.3,0.8c-2.2,0-4.4-0.5-6.4-1.6c-2-1-3.8-2.5-5.2-4.3
	c-1.4-1.8-2.4-3.8-2.8-6.1c-0.2-0.9-0.3-1.7-0.3-2.5c-0.1-2.9,0.5-5.4,1.6-7.6c1.2-2.2,2.8-3.9,4.9-5.1c2.1-1.2,4.6-1.8,7.4-1.8
	c1.7,0,3.4,0.4,5.2,1.2c1.8,0.8,3.4,2.1,4.7,3.8c1.4,1.7,2.3,3.8,2.8,6.3c0.2,0.9,0.3,1.9,0.4,2.9c0,0.8-0.1,1.4-0.3,1.8
	c-0.2,0.4-0.6,0.7-1,0.8c-0.5,0.1-1.1,0.2-2,0.2h-15.7c0.3,1,0.7,1.9,1.3,2.6c0.6,0.8,1.3,1.3,2.2,1.8c0.9,0.4,1.8,0.6,2.8,0.6
	c1.1,0,2-0.1,2.7-0.3c0.7-0.2,1.3-0.4,1.7-0.7c0.4-0.3,0.9-0.6,1.3-1.1C219.2,34.3,219.4,34.2,219.6,34z M175.6,28.9
	c0,0.5,0,1,0.1,1.4c0.2,0.9,0.6,1.9,1.1,2.7c0.6,0.9,1.3,1.6,2.2,2.1c0.9,0.5,1.9,0.8,3.1,0.8c1.4,0,2.6-0.3,3.7-0.9
	c1-0.6,1.8-1.5,2.3-2.5c0.5-1.1,0.8-2.3,0.9-3.6c0-0.5,0-1-0.2-1.6c-0.2-1-0.6-1.9-1.2-2.8c-0.6-0.8-1.3-1.4-2.3-1.9
	c-0.9-0.4-2-0.7-3.1-0.7c-1.3,0-2.5,0.4-3.5,1.1c-1,0.7-1.8,1.6-2.3,2.7C175.9,26.8,175.6,27.9,175.6,28.9z M168.1,7.6
	c0-0.7,0.4-1,1-1h6.4c0.6,0,0.9,0.2,1,0.7c0,0.1,0,0.2,0,0.3l-0.1,7.7l0,0c0,0.5,0.4,0.9,0.9,0.9c0.2,0,0.3,0,0.5-0.1l0,0
	c1.6-1,3.4-1.6,5.5-1.6c2.3,0,4.4,0.5,6.2,1.4c1.9,0.9,3.4,2.3,4.6,3.9c1.2,1.7,2,3.6,2.5,5.7c0.2,1.1,0.3,2.2,0.3,3.4
	c0,2.8-0.7,5.3-2,7.5c-1.3,2.2-3,3.9-5.1,5.1c-2.1,1.2-4.4,1.8-6.9,1.8c-1.4,0-2.7-0.3-3.9-0.8c-0.8-0.4-1.5-0.8-2.2-1.4
	c-0.2-0.2-0.4-0.3-0.6-0.3c-0.3,0-0.6,0.2-0.8,0.5l0,0c-0.1,0.3-0.3,0.6-0.5,0.9c-0.3,0.4-0.6,0.6-1,0.6h-5.4
	c-0.3,0-0.5-0.1-0.7-0.2c-0.2-0.1-0.3-0.3-0.3-0.5c0,0,0-0.1,0-0.3L168.1,7.6z M156.1,7.6c0-0.3,0.1-0.6,0.3-0.8
	c0.2-0.2,0.5-0.3,0.8-0.3h6.3c0.3,0,0.5,0.1,0.7,0.2c0.2,0.1,0.3,0.3,0.4,0.6c0,0.1,0,0.2,0,0.3l-0.4,34.3c0,0.3-0.1,0.6-0.3,0.8
	c-0.2,0.2-0.4,0.3-0.8,0.3h-6.3c-0.3,0-0.5-0.1-0.7-0.2c-0.2-0.1-0.3-0.3-0.4-0.6c0,0,0-0.1,0-0.3L156.1,7.6z M143.9,28.9
	c0-0.5,0-1-0.1-1.5c-0.2-1-0.6-2-1.2-2.8c-0.6-0.8-1.4-1.5-2.3-2c-0.9-0.5-1.9-0.7-3-0.7c-1.2,0-2.3,0.3-3.3,0.9
	c-1,0.6-1.9,1.4-2.5,2.5c-0.6,1.1-0.9,2.3-1,3.6c0,0.6,0,1.2,0.1,1.7c0.2,1,0.6,2,1.2,2.8c0.6,0.8,1.3,1.4,2.2,1.9
	c0.9,0.5,1.9,0.7,2.9,0.7c1.2,0,2.4-0.3,3.4-1c1-0.6,1.9-1.5,2.5-2.6C143.6,31.3,143.9,30.2,143.9,28.9z M152.2,42c0,0.7-0.3,1-1,1
	h-5c-0.3,0-0.5-0.1-0.7-0.3c-0.2-0.2-0.4-0.5-0.5-0.7c-0.1-0.1-0.1-0.3-0.2-0.5c-0.1-0.4-0.5-0.7-0.9-0.7c-0.2,0-0.5,0.1-0.6,0.2
	l0,0c-0.8,0.7-1.5,1.2-2.3,1.6c-1.1,0.6-2.4,0.8-3.9,0.8c-2.2,0-4.3-0.5-6.3-1.5c-2-1-3.7-2.4-5.1-4.1c-1.4-1.8-2.3-3.8-2.8-6.1
	c-0.2-0.9-0.3-2-0.3-3.1c0-2.7,0.6-5.2,1.8-7.3c1.2-2.2,2.8-3.8,5-5c2.2-1.2,4.7-1.8,7.6-1.8c2.7,0,5.1,0.9,7,2.7l0,0l0,0l0,0l0,0
	l0,0c0.2,0.1,0.4,0.2,0.6,0.2c0.4,0,0.7-0.2,0.9-0.6l0,0l0.4-1.1c0.1-0.4,0.3-0.7,0.4-0.8c0.1-0.1,0.3-0.2,0.6-0.2h4.7
	c0.6,0,0.9,0.2,1,0.7c0,0.1,0,0.2,0,0.3L152.2,42z M112.4,28.9c0-0.5,0-1-0.1-1.5c-0.2-1-0.6-2-1.2-2.8c-0.6-0.8-1.4-1.5-2.4-2
	c-0.9-0.5-2-0.7-3.1-0.7c-1.3,0-2.4,0.3-3.4,0.9c-1,0.6-1.7,1.5-2.3,2.6c-0.5,1.1-0.8,2.3-0.8,3.5c0,0.6,0,1.2,0.1,1.7
	c0.2,1,0.6,1.9,1.2,2.7c0.6,0.8,1.3,1.4,2.2,1.8c0.9,0.4,1.9,0.7,3,0.7c1.2,0,2.4-0.3,3.4-0.9c1-0.6,1.9-1.4,2.5-2.5
	C112.1,31.4,112.4,30.2,112.4,28.9z M119.8,38.4c-0.1,3.6-0.7,6.5-2,8.7c-1.3,2.2-3,3.9-5.1,4.8c-2.1,1-4.4,1.5-7,1.5
	c-2.2,0-4.2-0.3-6.2-1c-2-0.7-3.6-1.7-5-3c-0.2-0.2-0.3-0.3-0.3-0.5c0-0.1,0-0.3,0-0.4c0.1-0.1,0.2-0.3,0.3-0.5l2.6-3.7
	c0.3-0.4,0.6-0.6,0.9-0.6c0.3,0,0.6,0.1,0.9,0.4c0.8,0.7,1.6,1.1,2.6,1.5c1,0.3,2.2,0.5,3.5,0.5c1.1,0,2.2-0.2,3.3-0.7
	c1.1-0.5,1.9-1.2,2.6-2.1c0.7-0.9,1-2,1-3.2l0-0.6c-1,1-2.1,1.8-3.4,2.4c-1.2,0.6-2.5,0.8-3.9,0.8c-2.1,0-4-0.5-5.9-1.4
	c-1.8-0.9-3.4-2.2-4.7-3.9c-1.3-1.7-2.1-3.6-2.6-5.7c-0.2-1-0.3-2.1-0.3-3.2c0-2.6,0.6-5,1.8-7.1c1.2-2.1,2.8-3.8,4.9-5
	c2.1-1.2,4.4-1.8,7-1.8c1.6,0,3.1,0.3,4.5,1c0.9,0.4,1.8,1,2.5,1.7l0,0c0.2,0.2,0.4,0.2,0.6,0.2c0.4,0,0.8-0.3,0.9-0.7l0.2-0.6
	c0.2-0.5,0.3-0.8,0.5-1c0.1-0.2,0.4-0.3,0.8-0.3h4.2c0.6,0,0.9,0.2,1,0.7c0,0.1,0,0.2,0,0.4L119.8,38.4z M247.6,27.4
	c0-0.5,0-1-0.1-1.3c-0.2-1.1-0.7-2-1.6-2.7c-0.8-0.7-1.8-1-3.1-1c-1,0-1.9,0.2-2.6,0.7c-0.8,0.4-1.4,1.1-1.8,1.8
	c-0.4,0.8-0.7,1.6-0.7,2.6l-0.2,14.3c0,0.3-0.2,0.6-0.5,0.9c-0.3,0.3-0.7,0.4-1,0.4h-5.9c-0.6,0-0.9-0.2-1-0.7c0-0.1,0-0.2,0-0.3
	l0.3-26.1c0-0.7,0.4-1,1.1-1h4.1c0.4,0,0.7,0.1,1,0.4c0.3,0.2,0.5,0.5,0.6,0.9l0.2,0.8c0.1,0.4,0.5,0.8,0.9,0.8
	c0.3,0,0.6-0.1,0.7-0.3l0,0c0.8-0.8,1.6-1.4,2.5-1.8c1.4-0.7,2.9-1,4.6-1c1.3,0,2.6,0.3,4.1,0.9c1.5,0.6,2.8,1.5,4,2.8
	c1.2,1.3,2,3,2.5,5.1c0.2,1,0.3,2.1,0.3,3.3L255.6,42c0,0.7-0.3,1-1,1h-6.2c-0.6,0-0.9-0.2-1-0.7c0-0.1,0-0.2,0-0.3L247.6,27.4z"/>
</svg>
