<?xml version="1.0" encoding="utf-8"?>
<!-- Generator: Adobe Illustrator 25.2.1, SVG Export Plug-In . SVG Version: 6.00 Build 0)  -->
<svg version="1.1" id="Logomarca" xmlns="http://www.w3.org/2000/svg" xmlns:xlink="http://www.w3.org/1999/xlink" x="0px" y="0px"
	 viewBox="0 0 119 27" style="enable-background:new 0 0 119 27;" xml:space="preserve">
<style type="text/css">
	.st0{fill:#FF0000;}
	.st1{fill:#2C0DFF;}
	.st2{fill:#303535;}
	.st3{display:none;fill:#303535;enable-background:new    ;}
	.st4{font-family:'Poppins-SemiBold';}
	.st5{font-size:4.5px;}
</style>
<path class="st0" d="M19.1,5.8l-6.5-3.9c-0.4-0.2-0.9-0.2-1.2,0L2.2,7.3C1.8,7.5,1.5,8,1.5,8.4v10.2c0,0.6,0.3,1.1,0.8,1.4l9,4.9
	c0.4,0.2,1,0.2,1.4,0l6-3.4l8.6-3.4l-0.5-9L24,5.5L19.1,5.8z"/>
<path class="st1" d="M19.1,5.3L24.9,2c0.4-0.2,0.9-0.2,1.3,0l9,5.3c0.4,0.2,0.6,0.6,0.6,1v10.6c0,0.5-0.3,0.9-0.7,1.2l-8.9,5
	c-0.4,0.2-0.9,0.2-1.3,0L12.5,18c-0.4-0.2-0.6-0.6-0.6-1v-6.9c0-0.3,0.3-0.4,0.5-0.3l11.9,6.9c0.4,0.2,1-0.1,1-0.6V9.9
	c0-0.3-0.2-0.7-0.5-0.8l-5.7-3.3C19,5.7,18.7,5.6,19.1,5.3z"/>
<g>
	<path class="st2" d="M41.6,7.8v11.9H39V7.8H41.6z M39.8,8.6V19h1V8.6H39.8z"/>
	<path class="st2" d="M43,19.8V7.8h4.8c3.2,0,4.9,1.1,4.9,3.3c0,0.9-0.3,1.9-1,2.2c1.2,0.6,1.7,1.5,1.7,2.7c0,2.1-1.5,3.7-3.9,3.7
		H43z M49.4,19c2,0,3.2-1.3,3.2-3c0-1.1-0.5-2.1-2.6-2.4c1.5-0.6,1.9-1.4,1.9-2.3c0-1.8-1.4-2.6-4.1-2.6h-4V19L49.4,19
		C49.4,19,49.4,19,49.4,19z M48.2,9.7c1.9,0,2.8,0.6,2.8,1.7c0,1.9-2.5,1.9-3.7,1.9h-2.4V9.7H48.2z M44.7,18v-3.8h4.2
		c0.9,0,2.7,0.3,2.7,1.9c0,1.2-1.1,1.9-2.4,1.9L44.7,18L44.7,18z M45.5,10.4v2h2c1,0,2.6,0,2.6-1.1c0-0.6-0.5-0.9-2-0.9
		C48.2,10.4,45.5,10.4,45.5,10.4z M49.2,17.2c0.9,0,1.6-0.4,1.6-1.1c0-0.9-1.3-1.1-1.9-1.1h-3.4v2.2L49.2,17.2
		C49.2,17.2,49.2,17.2,49.2,17.2z"/>
	<path class="st2" d="M65.7,12.1L63,13c-0.5-1.7-1.4-2.7-3-2.7c-2,0-3,1.5-3,3.3c0,1.9,1.3,3.5,3.1,3.5c1.6,0,2.6-1.2,3-2.3l2.6,0.4
		c-0.4,2.7-2.5,4.6-5.5,4.6c-3.5,0-5.7-2.6-5.7-6.2c0-3.6,2.2-6.1,5.8-6.1C62.7,7.6,64.9,8.8,65.7,12.1z M55.2,13.7
		c0,3.2,1.9,5.5,4.9,5.5c2.4,0,4-1.4,4.6-3.3l-1.1-0.2c-0.5,1.2-1.5,2.3-3.4,2.3c-2.4,0-3.9-1.9-3.9-4.3c0-2.2,1.2-4.1,3.9-4.1
		c1.8,0,2.9,0.9,3.4,2.5l1.2-0.4c-0.8-2.4-2.4-3.3-4.5-3.3C57.1,8.3,55.2,10.5,55.2,13.7z"/>
	<path class="st2" d="M68.6,15.5c0.7,1.2,1.2,1.7,2.9,1.7c2,0,3-0.7,3-1.3c0-1.7-7.3-0.1-7.3-4.8c0-2.9,2.9-3.6,4.9-3.6
		c2.1,0,4.3,0.7,5.1,2.9l-2.3,1.3c-0.7-1-1.7-1.6-2.9-1.6c-0.7,0-2.2,0.2-2.2,0.9c0,0.4,0.4,0.6,1.1,0.8c2.4,0.7,6.2,0.6,6.2,4
		c0,3-2.9,4-5.4,4c-2.7,0-4.7-1.2-5.4-3.1L68.6,15.5z M67.2,17c0.6,1,2,2.1,4.4,2.1c2.2,0,4.7-0.9,4.7-3.2c0-2.2-2.1-2.6-3.9-2.9
		c-2.1-0.4-3.4-0.8-3.4-1.9c0-1.4,1.9-1.7,3-1.7c1.4,0,2.5,0.5,3.1,1.4l1.1-0.6c-0.7-1.4-2.3-1.9-4.1-1.9c-1.9,0-4.2,0.6-4.2,2.8
		c0,2.9,4,2.8,5.9,3.3c0.7,0.2,1.4,0.6,1.4,1.4c0,1.4-1.7,2.1-3.6,2.1c-1.7,0-2.8-0.5-3.4-1.6L67.2,17z"/>
	<path class="st2" d="M89.5,12.1L86.8,13c-0.5-1.7-1.4-2.7-3-2.7c-2,0-3,1.5-3,3.3c0,1.9,1.3,3.5,3.1,3.5c1.6,0,2.6-1.2,3-2.3
		l2.6,0.4c-0.4,2.7-2.5,4.6-5.5,4.6c-3.5,0-5.7-2.6-5.7-6.2c0-3.6,2.2-6.1,5.8-6.1C86.5,7.6,88.7,8.8,89.5,12.1z M79,13.7
		c0,3.2,1.9,5.5,4.9,5.5c2.4,0,4-1.4,4.6-3.3l-1.1-0.2c-0.5,1.2-1.5,2.3-3.4,2.3c-2.4,0-3.9-1.9-3.9-4.3c0-2.2,1.2-4.1,3.9-4.1
		c1.8,0,2.9,0.9,3.4,2.5l1.2-0.4c-0.8-2.4-2.4-3.3-4.5-3.3C80.9,8.3,79,10.5,79,13.7z"/>
</g>
<text transform="matrix(1 0 0 1 78.1761 24.4169)" class="st3 st4 st5">Consórcios</text>
</svg>
