<?xml version="1.0" encoding="utf-8"?>
<!-- Generator: Adobe Illustrator 25.2.1, SVG Export Plug-In . SVG Version: 6.00 Build 0)  -->
<svg version="1.1" id="Camada_1" xmlns="http://www.w3.org/2000/svg" xmlns:xlink="http://www.w3.org/1999/xlink" x="0px" y="0px"
	 viewBox="0 0 88 23.6" style="enable-background:new 0 0 88 23.6;" xml:space="preserve">
<style type="text/css">
	.st0{fill:#FF0000;}
	.st1{fill:#155BD5;}
	.st2{fill:#303535;}
</style>
<path class="st0" d="M18,4.2l-6.5-3.9c-0.4-0.2-0.8-0.2-1.2,0L1.3,5.7C0.9,5.9,0.6,6.4,0.6,6.8v10c0,0.6,0.3,1.1,0.8,1.4l8.8,4.9
	c0.4,0.2,1,0.2,1.4,0l5.9-3.4l8.5-3.3l-0.5-8.9l-2.8-3.5L18,4.2z"/>
<path class="st1" d="M18,3.7l5.7-3.2c0.4-0.2,0.9-0.2,1.3,0l8.9,5.2c0.4,0.2,0.6,0.6,0.6,1v10.5c0,0.5-0.3,0.9-0.7,1.1l-8.8,5
	c-0.4,0.2-0.9,0.2-1.3,0l-12.3-7c-0.3-0.2-0.6-0.6-0.6-1V8.5c0-0.3,0.3-0.4,0.5-0.3L23.1,15c0.4,0.2,1-0.1,1-0.6V8.3
	c0-0.3-0.2-0.7-0.5-0.8L18,4.2C17.8,4.1,17.5,4,18,3.7z"/>
<g>
	<path class="st2" d="M40.2,6.3V18h-2.6V6.3H40.2z M38.4,7v10.2h1V7H38.4z"/>
	<path class="st2" d="M41.5,18V6.3h4.7c3.1,0,4.8,1,4.8,3.2c0,0.9-0.3,1.9-1,2.2c1.2,0.6,1.6,1.5,1.6,2.7c0,2-1.5,3.7-3.9,3.7H41.5z
		 M47.8,17.2c1.9,0,3.1-1.3,3.1-3c0-1.1-0.5-2-2.6-2.4c1.5-0.6,1.9-1.3,1.9-2.3c0-1.7-1.3-2.6-4-2.6h-3.9v10.2L47.8,17.2
		C47.8,17.2,47.8,17.2,47.8,17.2z M46.6,8c1.9,0,2.7,0.6,2.7,1.6c0,1.9-2.4,1.9-3.7,1.9h-2.4V8H46.6z M43.2,16.2v-3.7h4.1
		c0.9,0,2.7,0.3,2.7,1.9c0,1.2-1,1.9-2.4,1.9L43.2,16.2L43.2,16.2z M44,8.8v2h2c1,0,2.6,0,2.6-1.1c0-0.6-0.5-0.9-2-0.9
		C46.6,8.8,44,8.8,44,8.8z M47.6,15.5c0.9,0,1.6-0.4,1.6-1.1c0-0.9-1.3-1.1-1.9-1.1H44v2.2L47.6,15.5C47.6,15.5,47.6,15.5,47.6,15.5
		z"/>
	<path class="st2" d="M63.9,10.4l-2.6,0.9c-0.5-1.7-1.4-2.7-3-2.7c-1.9,0-3,1.5-3,3.3c0,1.9,1.3,3.5,3.1,3.5c1.6,0,2.5-1.2,2.9-2.3
		l2.5,0.4c-0.4,2.7-2.4,4.6-5.4,4.6c-3.4,0-5.7-2.6-5.7-6.2c0-3.6,2.2-6,5.7-6C61,6,63.1,7.2,63.9,10.4z M53.5,12
		c0,3.1,1.9,5.4,4.9,5.4c2.4,0,3.9-1.4,4.5-3.3l-1.1-0.2c-0.5,1.1-1.5,2.3-3.4,2.3c-2.4,0-3.9-1.9-3.9-4.2c0-2.1,1.2-4.1,3.8-4.1
		c1.7,0,2.9,0.8,3.4,2.4L63,10c-0.7-2.3-2.4-3.2-4.4-3.2C55.4,6.7,53.5,8.8,53.5,12z"/>
	<path class="st2" d="M66.7,13.8c0.7,1.2,1.2,1.7,2.9,1.7c1.9,0,2.9-0.7,2.9-1.3c0-1.7-7.2-0.1-7.2-4.7c0-2.9,2.9-3.6,4.8-3.6
		c2,0,4.3,0.7,5.1,2.9l-2.3,1.3c-0.7-1-1.6-1.6-2.9-1.6c-0.7,0-2.2,0.2-2.2,0.9c0,0.4,0.4,0.6,1.1,0.8c2.4,0.7,6.1,0.6,6.1,4
		c0,2.9-2.9,4-5.3,4c-2.6,0-4.7-1.2-5.3-3.1L66.7,13.8z M65.4,15.3c0.6,1,2,2.1,4.4,2.1c2.1,0,4.6-0.8,4.6-3.2
		c0-2.2-2.1-2.5-3.9-2.9c-2.1-0.4-3.4-0.7-3.4-1.9c0-1.3,1.9-1.7,3-1.7c1.3,0,2.4,0.5,3,1.4l1.1-0.6c-0.7-1.4-2.3-1.9-4-1.9
		c-1.9,0-4.2,0.6-4.2,2.8c0,2.9,4,2.8,5.8,3.3c0.7,0.2,1.4,0.6,1.4,1.4c0,1.3-1.7,2.1-3.6,2.1c-1.6,0-2.7-0.5-3.3-1.6L65.4,15.3z"/>
	<path class="st2" d="M87.4,10.4l-2.6,0.9c-0.5-1.7-1.4-2.7-3-2.7c-1.9,0-3,1.5-3,3.3c0,1.9,1.3,3.5,3.1,3.5c1.6,0,2.5-1.2,2.9-2.3
		l2.5,0.4c-0.4,2.7-2.4,4.6-5.4,4.6c-3.4,0-5.7-2.6-5.7-6.2c0-3.6,2.2-6,5.7-6C84.5,6,86.6,7.2,87.4,10.4z M77,12
		c0,3.1,1.9,5.4,4.9,5.4c2.4,0,3.9-1.4,4.5-3.3l-1.1-0.2c-0.5,1.1-1.5,2.3-3.4,2.3c-2.4,0-3.9-1.9-3.9-4.2c0-2.1,1.2-4.1,3.8-4.1
		c1.7,0,2.9,0.8,3.4,2.4l1.2-0.4c-0.7-2.3-2.4-3.2-4.4-3.2C78.9,6.7,77,8.8,77,12z"/>
</g>
</svg>
