<?xml version="1.0" encoding="utf-8"?>
<!-- Generator: Adobe Illustrator 25.2.1, SVG Export Plug-In . SVG Version: 6.00 Build 0)  -->
<svg version="1.1" xmlns="http://www.w3.org/2000/svg" xmlns:xlink="http://www.w3.org/1999/xlink" x="0px" y="0px"
	 viewBox="0 0 119 27" style="enable-background:new 0 0 119 27;" xml:space="preserve">
<style type="text/css">
	.st0{display:none;}
	.st1{display:inline;}
	.st2{fill:none;stroke:#155BD5;stroke-miterlimit:10;}
	.st3{fill:#155BD5;}
</style>
<g id="Plano_de_fundo" class="st0">
	<rect x="-2.24" y="-0.9" class="st1" width="123.66" height="28.8"/>
</g>
<g id="Logomarca">
	<path class="st2" d="M39.32,9.92v6.29c0,0.5-0.54,0.81-0.97,0.56L26.46,9.89c-0.22-0.13-0.5,0.03-0.5,0.29v6.89
		c0,0.41,0.21,0.78,0.56,0.98l6.13,3.5l-5.97,3.39c-0.43,0.25-0.97,0.25-1.41,0.01l-8.95-4.93c-0.5-0.28-0.81-0.8-0.81-1.38V8.46
		c0-0.48,0.26-0.93,0.67-1.17l9.18-5.44c0.38-0.23,0.86-0.23,1.24-0.01l6.37,3.81c0.05,0.04,0.12,0.07,0.17,0.1l5.7,3.34
		C39.14,9.26,39.32,9.58,39.32,9.92z"/>
	<path class="st2" d="M33.14,5.75c-0.05-0.03-0.12-0.06-0.17-0.1c-0.11-0.08-0.14-0.19,0.16-0.39l5.74-3.25
		c0.42-0.24,0.93-0.23,1.34,0.01l9.04,5.28c0.37,0.21,0.6,0.61,0.6,1.04v10.61c0,0.48-0.26,0.93-0.68,1.16l-8.92,5.05
		c-0.4,0.22-0.9,0.22-1.3-0.01l-6.3-3.6"/>
	<g>
		<path class="st3" d="M74.11,17.15c-1.84,0-3.12-1.59-3.12-3.54c0-1.77,1.05-3.31,3.01-3.31c1.58,0,2.5,1.01,3.01,2.69l2.68-0.89
			c-0.8-3.3-2.96-4.55-5.49-4.55c-3.6,0-5.81,2.52-5.81,6.11c0,3.65,2.27,6.24,5.74,6.24c3.03,0,5.05-1.95,5.49-4.64l-2.55-0.44
			C76.66,15.95,75.71,17.15,74.11,17.15z"/>
		<path class="st3" d="M84.85,11.82c-0.67-0.2-1.1-0.41-1.1-0.78c0-0.67,1.49-0.89,2.2-0.89c1.24,0,2.18,0.66,2.89,1.63l2.32-1.33
			c-0.8-2.2-3.07-2.91-5.12-2.91c-2.02,0-4.91,0.69-4.91,3.61c0,4.64,7.34,3.07,7.34,4.78c0,0.62-0.99,1.27-2.96,1.27
			c-1.75,0-2.29-0.51-2.94-1.74l-2.32,1.29c0.67,1.91,2.75,3.12,5.4,3.12c2.48,0,5.42-1.06,5.42-4.04
			C91.07,12.45,87.26,12.53,84.85,11.82z"/>
		<path class="st3" d="M97.9,17.15c-1.84,0-3.12-1.59-3.12-3.54c0-1.77,1.04-3.31,3.01-3.31c1.58,0,2.5,1.01,3.01,2.69l2.67-0.89
			c-0.8-3.3-2.96-4.55-5.49-4.55c-3.6,0-5.81,2.52-5.81,6.11c0,3.65,2.27,6.24,5.74,6.24c3.03,0,5.05-1.95,5.49-4.64l-2.55-0.44
			C100.46,15.95,99.5,17.15,97.9,17.15z"/>
		<rect x="53.03" y="7.85" class="st3" width="2.59" height="11.91"/>
		<path class="st3" d="M65.62,13.34c0.67-0.32,0.98-1.28,0.98-2.21c0-2.21-1.7-3.28-4.87-3.28h-4.77v11.91h6.4
			c2.45,0,3.93-1.67,3.93-3.72C67.29,14.88,66.83,13.96,65.62,13.34z M59.51,14.97h3.37c0.62,0,1.93,0.21,1.93,1.13
			c0,0.69-0.73,1.08-1.61,1.08h-3.69V14.97z M59.51,10.42h2.64c1.45,0,2,0.34,2,0.94c0,1.05-1.59,1.08-2.62,1.08h-2.02V10.42z"/>
	</g>
</g>
</svg>
