<?xml version="1.0" encoding="utf-8"?>
<!-- Generator: Adobe Illustrator 25.2.1, SVG Export Plug-In . SVG Version: 6.00 Build 0)  -->
<svg version="1.1" id="Camada_1" xmlns="http://www.w3.org/2000/svg" xmlns:xlink="http://www.w3.org/1999/xlink" x="0px" y="0px"
	 viewBox="0 0 474 475" style="enable-background:new 0 0 474 475;" xml:space="preserve">
<style type="text/css">
	.st0{fill-rule:evenodd;clip-rule:evenodd;fill:#FFFFFF;}
</style>
<g>
	<path class="st0" d="M344.2,283.4c-5.8-2.9-34.2-16.9-39.6-18.9c-5.3-2-9.2-2.9-13,2.9c-3.8,5.8-15,18.9-18.3,22.7
		s-6.8,4.3-12.6,1.5c-5.8-2.9-24.5-9.1-46.5-28.7c-17.2-15.4-28.8-34.3-32.3-40.2c-3.3-5.8-0.4-9,2.6-11.8c2.6-2.6,5.8-6.8,8.7-10.1
		s3.8-5.8,5.8-9.6c2-3.8,1-7.3-0.5-10.1c-1.5-2.9-13-31.4-17.9-43c-4.7-11.3-9.4-9.7-13-9.9c-3.3-0.2-7.3-0.2-11.1-0.2
		c-3.8,0-10.1,1.5-15.5,7.3c-5.3,5.8-20.3,19.8-20.3,48.3s20.8,56.1,23.6,59.9c2.9,3.8,40.8,62.4,99,87.5c13.8,6,24.6,9.5,33.1,12.2
		c13.9,4.4,26.5,3.7,36.5,2.3c11.1-1.7,34.2-14,39.1-27.6c4.8-13.6,4.8-25.1,3.3-27.6C353.9,287.9,349.9,286.4,344.2,283.4z
		 M238.4,427.8L238.4,427.8c-34.6,0-68.6-9.3-98.2-26.9l-7.1-4.1l-72.8,19.1l19.5-71.1l-4.6-7.3c-19.3-30.7-29.5-66.1-29.4-102.5
		c0-106.3,86.5-192.7,192.8-192.7c51.5,0,99.9,20.1,136.3,56.5c36.4,36.4,56.4,84.8,56.4,136.4C431.1,341.4,344.7,427.8,238.4,427.8
		z M402.5,71.1c-43.8-43.8-102.1-68-164-68C110.6,3.1,6.6,107.1,6.6,234.9c0,40.8,10.6,80.8,31,115.9L4.6,471l122.9-32.3
		c33.9,18.5,72,28.2,110.8,28.2h0.1l0,0c127.8,0,231.9-104,231.9-231.9C470.4,173.1,446.3,114.9,402.5,71.1"/>
</g>
</svg>
