<?xml version="1.0" encoding="utf-8"?>
<!-- Generator: Adobe Illustrator 25.2.1, SVG Export Plug-In . SVG Version: 6.00 Build 0)  -->
<svg version="1.1" xmlns="http://www.w3.org/2000/svg" xmlns:xlink="http://www.w3.org/1999/xlink" x="0px" y="0px"
	 viewBox="0 0 60 60" style="enable-background:new 0 0 60 60;" xml:space="preserve">
<style type="text/css">
	.st0{display:none;}
	.st1{display:inline;fill:#FFFFFF;}
	.st2{fill:#2360A5;}
</style>
<g id="Embracon" class="st0">
	<path class="st1" d="M24.8,25.3l22.8-12.6c0.5-0.2,0.9-0.5,1.2-0.9c0.3-0.4,0.6-0.8,0.8-1.3c0.2-0.5,0.2-1,0.2-1.5
		c0-0.5-0.2-1-0.4-1.4c-0.2-0.4-0.6-0.8-1-1.1c-0.4-0.3-0.9-0.5-1.4-0.7c-0.5-0.1-1-0.1-1.5,0c-0.5,0.1-1,0.3-1.4,0.6L44,6.4
		L21.3,18.9L24.8,25.3z"/>
	<path class="st1" d="M48.4,14.4L25.8,27l3.5,6.4l22.9-12.6c0.8-0.5,1.3-1.3,1.6-2.2c0.2-0.9,0.1-1.9-0.3-2.7
		c-0.4-0.8-1.2-1.4-2.1-1.7c-0.9-0.3-1.8-0.2-2.7,0.2L48.4,14.4"/>
	<path class="st1" d="M58,23.8c-0.5-0.8-1.3-1.5-2.2-1.7c-0.9-0.3-1.9-0.2-2.8,0.3l-0.2,0.1L30.2,35l3.5,6.4l22.8-12.6
		c0.8-0.5,1.5-1.3,1.7-2.2C58.6,25.6,58.5,24.6,58,23.8"/>
	<path class="st1" d="M51,34l-0.2,0.1L30,45.6c-3.4,1.9-7.4,2.3-11.2,1.2c-3.7-1.1-6.9-3.6-8.8-7c-1.8-3.4-2.2-7.4-1.2-11.1
		s3.5-6.9,6.8-8.8l0.2-0.1l12.6-7c0.5-0.2,0.9-0.5,1.3-0.8c0.4-0.4,0.7-0.8,0.8-1.3c0.2-0.5,0.3-1,0.2-1.5c0-0.5-0.2-1-0.4-1.5
		c-0.3-0.5-0.6-0.9-1-1.2c-0.4-0.3-0.9-0.5-1.4-0.6c-0.5-0.1-1-0.1-1.6,0c-0.5,0.1-1,0.3-1.4,0.7l-0.2,0.1l-12.4,6.9
		c-4.9,2.9-8.5,7.6-10,13.2c-1.5,5.5-0.8,11.4,2,16.4c2.8,5,7.4,8.8,12.9,10.4c5.5,1.7,11.4,1.1,16.5-1.5l0.5-0.3l20.4-11.3
		c0.5-0.2,0.9-0.5,1.2-0.9c0.3-0.4,0.6-0.8,0.8-1.3c0.2-0.5,0.2-1,0.2-1.5c0-0.5-0.2-1-0.4-1.4c-0.2-0.4-0.6-0.8-1-1.1
		c-0.4-0.3-0.9-0.5-1.4-0.6c-0.5-0.1-1-0.1-1.5-0.1C51.9,33.5,51.4,33.7,51,34"/>
</g>
<g id="Banco_do_Brasil">
	<path class="st2" d="M3.4,49.2l5.5-3.7l5.5,3.7L3.4,56.6V49.2z M56.6,10.8l-5.5,3.7l-5.5-3.7l11.1-7.4V10.8z M56.6,38.9L30,56.6
		L3.4,38.9L35,17.8l5.5,3.7L15,38.5l15.5,10.4l7.2-4.8l-5.5-3.7l13.3-8.9L56.6,38.9L56.6,38.9z M3.4,21.1L30,3.4l26.6,17.8L25,42.2
		l-5.5-3.7l25.5-17L29.4,11.1l-7.2,4.8l5.5,3.7l-13.3,8.9L3.4,21.1L3.4,21.1z"/>
</g>
<g id="Âncora">
</g>
</svg>
