<?xml version="1.0" encoding="utf-8"?>
<!-- Generator: Adobe Illustrator 25.2.1, SVG Export Plug-In . SVG Version: 6.00 Build 0)  -->
<svg version="1.1" id="Camada_1" xmlns="http://www.w3.org/2000/svg" xmlns:xlink="http://www.w3.org/1999/xlink" x="0px" y="0px"
	 viewBox="0 0 119 27" style="enable-background:new 0 0 119 27;" xml:space="preserve">
<style type="text/css">
	.st0{display:none;}
	.st1{display:inline;}
	.st2{fill:none;stroke:#FFFFFF;stroke-miterlimit:10;}
	.st3{fill:#FFFFFF;}
</style>
<g id="Plano_de_fundo" class="st0">
	<rect x="-2.2" y="-0.9" class="st1" width="123.7" height="28.8"/>
</g>
<g id="Logomarca">
	<path class="st2" d="M25.3,9.9v6.3c0,0.5-0.5,0.8-1,0.6L12.5,9.9c-0.2-0.1-0.5,0-0.5,0.3v6.9c0,0.4,0.2,0.8,0.6,1l6.1,3.5l-6,3.4
		c-0.4,0.2-1,0.2-1.4,0L2.3,20c-0.5-0.3-0.8-0.8-0.8-1.4V8.5c0-0.5,0.3-0.9,0.7-1.2l9.2-5.4c0.4-0.2,0.9-0.2,1.2,0L19,5.6
		c0,0,0.1,0.1,0.2,0.1l5.7,3.3C25.1,9.3,25.3,9.6,25.3,9.9z"/>
	<path class="st2" d="M19.1,5.8c0,0-0.1-0.1-0.2-0.1c-0.1-0.1-0.1-0.2,0.2-0.4L24.9,2c0.4-0.2,0.9-0.2,1.3,0l9,5.3
		c0.4,0.2,0.6,0.6,0.6,1V19c0,0.5-0.3,0.9-0.7,1.2l-8.9,5c-0.4,0.2-0.9,0.2-1.3,0l-6.3-3.6"/>
	<g>
		<path class="st3" d="M60.1,17.1c-1.8,0-3.1-1.6-3.1-3.5c0-1.8,1.1-3.3,3-3.3c1.6,0,2.5,1,3,2.7l2.7-0.9c-0.8-3.3-3-4.6-5.5-4.6
			c-3.6,0-5.8,2.5-5.8,6.1c0,3.6,2.3,6.2,5.7,6.2c3,0,5.1-2,5.5-4.6l-2.6-0.4C62.7,15.9,61.7,17.1,60.1,17.1z"/>
		<path class="st3" d="M70.8,11.8c-0.7-0.2-1.1-0.4-1.1-0.8c0-0.7,1.5-0.9,2.2-0.9c1.2,0,2.2,0.7,2.9,1.6l2.3-1.3
			c-0.8-2.2-3.1-2.9-5.1-2.9c-2,0-4.9,0.7-4.9,3.6c0,4.6,7.3,3.1,7.3,4.8c0,0.6-1,1.3-3,1.3c-1.8,0-2.3-0.5-2.9-1.7l-2.3,1.3
			c0.7,1.9,2.8,3.1,5.4,3.1c2.5,0,5.4-1.1,5.4-4C77.1,12.4,73.3,12.5,70.8,11.8z"/>
		<path class="st3" d="M83.9,17.1c-1.8,0-3.1-1.6-3.1-3.5c0-1.8,1-3.3,3-3.3c1.6,0,2.5,1,3,2.7l2.7-0.9c-0.8-3.3-3-4.6-5.5-4.6
			c-3.6,0-5.8,2.5-5.8,6.1c0,3.6,2.3,6.2,5.7,6.2c3,0,5.1-2,5.5-4.6l-2.6-0.4C86.5,15.9,85.5,17.1,83.9,17.1z"/>
		<rect x="39" y="7.8" class="st3" width="2.6" height="11.9"/>
		<path class="st3" d="M51.6,13.3c0.7-0.3,1-1.3,1-2.2c0-2.2-1.7-3.3-4.9-3.3H43v11.9h6.4c2.4,0,3.9-1.7,3.9-3.7
			C53.3,14.9,52.8,14,51.6,13.3z M45.5,15h3.4c0.6,0,1.9,0.2,1.9,1.1c0,0.7-0.7,1.1-1.6,1.1h-3.7V15z M45.5,10.4h2.6
			c1.5,0,2,0.3,2,0.9c0,1.1-1.6,1.1-2.6,1.1h-2C45.5,12.4,45.5,10.4,45.5,10.4z"/>
	</g>
</g>
</svg>
