<?xml version="1.0" encoding="utf-8"?>
<!-- Generator: Adobe Illustrator 25.2.1, SVG Export Plug-In . SVG Version: 6.00 Build 0)  -->
<svg version="1.1" id="Camada_1" xmlns="http://www.w3.org/2000/svg" xmlns:xlink="http://www.w3.org/1999/xlink" x="0px" y="0px"
	 viewBox="0 0 800 800" style="enable-background:new 0 0 800 800;" xml:space="preserve">
<style type="text/css">
	.st0{clip-path:url(#SVGID_2_);}
	.st1{fill:#30F067;}
	.st2{fill-rule:evenodd;clip-rule:evenodd;fill:#FFFFFF;}
</style>
<g>
	<g>
		<g>
			<g>
				<defs>
					<rect id="SVGID_1_" y="0" width="800" height="800"/>
				</defs>
				<clipPath id="SVGID_2_">
					<use xlink:href="#SVGID_1_"  style="overflow:visible;"/>
				</clipPath>
				<g class="st0">
					<g>
						<path class="st1" d="M787.6,800H12.4C5.6,800,0,793.3,0,785.1V14.9C0,6.7,5.6,0,12.4,0h775.2c6.9,0,12.4,6.7,12.4,14.9v770.2
							C800,793.3,794.4,800,787.6,800z"/>
					</g>
					<g>
						<path class="st2" d="M508.6,450.4c-5.9-2.9-34.8-17.2-40.2-19.2c-5.4-2-9.3-2.9-13.2,2.9c-3.9,5.9-15.2,19.2-18.6,23.1
							s-6.9,4.4-12.8,1.5s-24.9-9.2-47.3-29.2c-17.5-15.6-29.3-34.9-32.8-40.8c-3.4-5.9-0.4-9.1,2.6-12c2.6-2.6,5.9-6.9,8.8-10.3
							s3.9-5.9,5.9-9.8s1-7.4-0.5-10.3s-13.2-31.9-18.2-43.7c-4.8-11.5-9.6-9.9-13.2-10.1c-3.4-0.2-7.4-0.2-11.3-0.2
							s-10.3,1.5-15.7,7.4c-5.4,5.9-20.6,20.1-20.6,49.1s21.1,57,24,60.9s41.5,63.4,100.6,88.9c14,6.1,25,9.7,33.6,12.4
							c14.1,4.5,26.9,3.8,37.1,2.3c11.3-1.7,34.8-14.2,39.7-28s4.9-25.5,3.4-28C518.4,454.9,514.4,453.4,508.6,450.4z M401.1,597.1
							L401.1,597.1c-35.2,0-69.7-9.5-99.8-27.3l-7.2-4.2l-74,19.4l19.8-72.3l-4.7-7.4c-19.6-31.2-30-67.2-29.9-104.2
							c0-108,87.9-195.8,195.9-195.8c52.3,0,101.5,20.4,138.5,57.4S597,348.9,597,401.3C596.9,509.3,509.1,597.1,401.1,597.1z
							 M567.8,234.6c-44.5-44.5-103.7-69.1-166.7-69.1c-129.9,0-235.6,105.7-235.6,235.6c0,41.5,10.8,82.1,31.5,117.8L163.5,641
							l124.9-32.8c34.4,18.8,73.2,28.7,112.6,28.7h0.1l0,0c129.9,0,235.6-105.7,235.6-235.6C636.8,338.3,612.3,279.1,567.8,234.6"/>
					</g>
				</g>
			</g>
		</g>
	</g>
</g>
</svg>
